<svg width="216" height="202" viewBox="0 0 216 202" fill="none" xmlns="http://www.w3.org/2000/svg">
<rect width="216" height="201.719" rx="11" fill="#021192"/>
<path d="M102.9 23.4792L103.56 25.4592L101.14 26.5592L100.26 24.3592L101.14 22.5992L102.9 23.4792ZM111.26 24.7992C111.993 25.0926 112.507 25.3859 112.8 25.6792C113.24 25.8259 113.387 26.2659 113.24 26.9992C112.947 28.3192 112.14 29.0526 110.82 29.1992C109.793 29.3459 108.987 29.4192 108.4 29.4192C107.96 29.4192 107.593 28.9792 107.3 28.0992C106.86 27.2192 106.713 26.5592 106.86 26.1192C107.007 25.6792 107.447 25.0926 108.18 24.3592C108.767 23.7726 109.28 23.6259 109.72 23.9192C110.16 24.2126 110.673 24.5059 111.26 24.7992ZM133.7 26.1192C133.993 26.8526 134.287 27.4392 134.58 27.8792C134.873 28.1726 134.8 28.6126 134.36 29.1992C133.333 30.3726 132.16 30.6659 130.84 30.0792C129.667 29.6392 129.153 28.6126 129.3 26.9992C129.447 25.3859 130.107 24.4326 131.28 24.1392C132.013 23.9926 132.453 24.1392 132.6 24.5792C132.893 25.0192 133.26 25.5326 133.7 26.1192ZM85.3 25.0192L86.62 26.9992L85.74 28.7592L83.98 28.0992L82.88 26.1192L85.3 25.0192ZM127.1 27.2192L125.78 29.4192L123.36 30.0792L122.04 27.2192L124.68 26.1192L127.1 27.2192ZM117.42 28.9792L117.2 30.9592L115.22 31.6192L114.56 29.8592L115.44 27.8792L117.42 28.9792ZM80.24 29.8592L81.56 31.3992L80.24 32.9392H78.26L78.04 30.5192L80.24 29.8592ZM101.14 30.9592C106.273 31.9859 110.013 33.2326 112.36 34.6992C114.853 36.1659 116.393 39.4659 116.98 44.5992C117.713 50.0259 117.2 53.9859 115.44 56.4792C113.827 58.8259 110.6 61.0992 105.76 63.2992C101.36 65.3526 97.9867 65.7192 95.64 64.3992C93.44 63.0792 90.6533 60.6592 87.28 57.1392C83.9067 53.4726 81.6333 50.4659 80.46 48.1192C79.2867 45.7726 79.8733 42.4726 82.22 38.2192C84.7133 33.8192 87.2067 31.3259 89.7 30.7392C92.34 30.0059 96.1533 30.0792 101.14 30.9592ZM137.88 30.2992V32.2792L136.34 34.0392L134.8 32.2792L135.68 30.2992H137.88ZM123.14 32.9392L121.16 34.6992L118.74 34.4792V32.0592L120.94 31.6192L123.14 32.9392ZM132.38 34.2592L131.72 36.4592H129.3L129.08 34.0392L130.62 33.1592L132.38 34.2592ZM140.08 35.1392L140.96 36.6792L139.2 37.9992L138.1 36.2392L138.54 34.2592L140.08 35.1392ZM126.88 37.9992L126.22 39.7592L124.02 40.1992L123.14 37.5592L125.34 36.6792L126.88 37.9992ZM76.5 41.5192V43.7192L74.74 44.1592L73.86 42.6192L74.74 40.8592L76.5 41.5192ZM143.82 41.5192L145.58 42.3992L144.04 43.7192L141.84 44.1592L141.62 41.5192H143.82ZM139.64 46.5792C140.373 48.4859 140.74 50.0259 140.74 51.1992C140.74 52.2259 139.933 53.3259 138.32 54.4992C136.56 55.9659 135.02 56.8459 133.7 57.1392C132.527 57.2859 130.987 56.6992 129.08 55.3792C127.32 54.2059 126.513 53.0326 126.66 51.8592C126.953 50.5392 127.393 48.8526 127.98 46.7992C128.567 45.0392 129.227 43.9392 129.96 43.4992C130.84 43.0592 132.16 42.8392 133.92 42.8392C135.533 42.8392 136.78 43.0592 137.66 43.4992C138.54 43.9392 139.2 44.9659 139.64 46.5792ZM122.48 43.7192L124.9 45.4792L123.36 47.8992H120.94L119.84 45.2592L122.48 43.7192ZM76.72 49.8792L76.06 52.2992L73.64 51.1992L73.2 48.5592H75.62L76.72 49.8792ZM121.38 50.7592L122.92 52.0792L121.6 53.1792H120.28L119.4 51.4192L121.38 50.7592ZM147.12 51.6392C148.293 51.7859 148.953 52.2259 149.1 52.9592C149.247 53.9859 148.88 54.7926 148 55.3792C147.413 55.6726 146.9 55.8926 146.46 56.0392C146.02 56.1859 145.507 56.0392 144.92 55.5992C144.04 54.7192 143.893 53.6192 144.48 52.2992C144.773 51.7126 145.067 51.4926 145.36 51.6392C145.8 51.6392 146.387 51.6392 147.12 51.6392ZM77.82 54.7192L78.26 56.4792L76.06 56.9192L74.74 54.7192L76.72 53.3992L77.82 54.7192ZM73.64 54.7192L72.32 56.9192L70.34 56.0392V54.2792L71.66 53.8392L73.64 54.7192ZM124.68 58.0192L124.9 60.4392L123.14 62.1992L120.5 60.4392L122.26 58.0192H124.68ZM150.86 58.4592L151.74 60.6592L149.98 61.7592L147.78 61.0992L148.22 58.6792L150.86 58.4592ZM141.84 62.1992C142.573 63.6659 142.94 64.8392 142.94 65.7192C142.94 66.4526 142.353 67.4059 141.18 68.5792C140.153 69.7526 139.2 70.3392 138.32 70.3392C137.587 70.1926 136.56 69.8259 135.24 69.2392C133.92 68.6526 133.113 68.0659 132.82 67.4792C132.527 66.7459 132.453 65.6459 132.6 64.1792C132.747 62.8592 133.04 61.9059 133.48 61.3192C133.92 60.5859 134.873 60.0726 136.34 59.7792C137.807 59.4859 138.907 59.4859 139.64 59.7792C140.373 60.0726 141.107 60.8792 141.84 62.1992ZM77.16 62.6392C78.7733 63.8126 79.9467 64.7659 80.68 65.4992C81.56 66.2326 81.78 67.4792 81.34 69.2392C80.7533 71.2926 79.9467 72.5392 78.92 72.9792C77.8933 73.2726 76.3533 73.4926 74.3 73.6392C72.2467 73.6392 70.7067 73.4926 69.68 73.1992C68.8 72.7592 67.9933 71.5859 67.26 69.6792C66.5267 67.6259 66.2333 66.0126 66.38 64.8392C66.5267 63.6659 67.48 62.4192 69.24 61.0992C70.8533 59.7792 72.1 59.4859 72.98 60.2192C74.0067 60.8059 75.4 61.6126 77.16 62.6392ZM120.94 67.6992C120.94 69.1659 120.427 69.8992 119.4 69.8992C118.373 69.8992 117.127 70.1192 115.66 70.5592C114.633 70.9992 113.827 71.2926 113.24 71.4392C112.653 71.4392 112.067 70.9992 111.48 70.1192C110.747 69.2392 110.38 68.5059 110.38 67.9192C110.527 67.1859 110.893 66.3059 111.48 65.2792C112.213 64.3992 112.873 63.9592 113.46 63.9592C114.047 63.8126 114.853 63.9592 115.88 64.3992C117.347 64.8392 118.52 65.1326 119.4 65.2792C120.427 65.4259 120.94 66.2326 120.94 67.6992ZM88.16 66.3792L87.5 68.5792H85.08V66.3792L86.4 65.0592L88.16 66.3792ZM148.88 66.1592L150.42 67.4792L148.88 69.4592L147.56 68.1392L147.34 66.5992L148.88 66.1592ZM128.42 68.7992C129.007 69.9726 129.007 70.8526 128.42 71.4392C127.98 72.1726 127.54 72.6859 127.1 72.9792C126.807 73.2726 126.22 73.2726 125.34 72.9792C124.607 72.6859 124.313 72.3192 124.46 71.8792C124.753 71.2926 124.9 70.5592 124.9 69.6792C124.9 68.9459 125.34 68.4326 126.22 68.1392C127.247 67.9926 127.98 68.2126 128.42 68.7992ZM106.2 70.7792C106.493 71.8059 106.493 72.5392 106.2 72.9792C106.053 73.4192 105.54 74.0059 104.66 74.7392C103.78 75.3259 103.047 75.7659 102.46 76.0592C102.02 76.3526 101.287 76.2059 100.26 75.6192C99.38 74.8859 98.8667 74.2259 98.72 73.6392C98.72 73.0526 98.94 72.2459 99.38 71.2192C99.82 69.4592 100.847 68.5792 102.46 68.5792C104.367 68.5792 105.613 69.3126 106.2 70.7792ZM96.08 70.1192L96.74 71.8792L96.3 73.4192L94.54 72.7592L94.1 70.9992L96.08 70.1192ZM154.38 73.8592C154.38 74.8859 154.087 75.5459 153.5 75.8392C153.06 75.9859 152.4 76.2792 151.52 76.7192C150.64 77.1592 149.907 77.4526 149.32 77.5992C148.733 77.5992 148.147 77.2326 147.56 76.4992C146.973 75.7659 146.827 75.1792 147.12 74.7392C147.413 74.2992 147.853 73.6392 148.44 72.7592C148.88 72.0259 149.247 71.4392 149.54 70.9992C149.833 70.4126 150.42 70.2659 151.3 70.5592C153.207 70.9992 154.233 72.0992 154.38 73.8592ZM91.9 72.5392L90.36 73.6392L88.6 73.4192V71.6592L90.58 70.3392L91.9 72.5392ZM85.3 73.4192C86.0333 73.8592 86.2533 74.3726 85.96 74.9592C85.6667 75.3992 85.4467 76.0592 85.3 76.9392C85.0067 77.5259 84.7867 78.0392 84.64 78.4792C84.4933 78.9192 84.0533 79.1392 83.32 79.1392C82.44 79.1392 81.78 79.0659 81.34 78.9192C80.9 78.7726 80.5333 78.2592 80.24 77.3792C79.6533 75.9126 80.02 74.6659 81.34 73.6392C82.8067 72.6126 84.1267 72.5392 85.3 73.4192ZM144.26 75.3992L143.16 77.8192L140.96 77.3792L139.86 75.3992L141.84 74.0792L144.26 75.3992ZM131.06 75.8392L129.96 77.3792L128.2 77.1592V75.3992L129.52 74.7392L131.06 75.8392ZM65.28 74.9592L66.6 77.5992L64.4 80.2392L61.76 78.2592L61.98 74.9592H65.28ZM100.04 78.6992C100.48 79.8726 100.48 80.8259 100.04 81.5592C99.7467 82.1459 99.0133 82.8059 97.84 83.5392C96.96 84.2726 96.2267 84.4926 95.64 84.1992C95.0533 83.9059 94.32 83.3926 93.44 82.6592C92.7067 82.0726 92.34 81.5592 92.34 81.1192C92.34 80.6792 92.4867 80.0192 92.78 79.1392C93.0733 78.1126 93.2933 77.3059 93.44 76.7192C93.7333 75.9859 94.3933 75.6192 95.42 75.6192C96.8867 75.6192 97.9133 75.8392 98.5 76.2792C99.0867 76.5726 99.6 77.3792 100.04 78.6992ZM137 76.7192L136.34 79.1392L133.92 79.3592V77.3792L134.8 75.8392L137 76.7192ZM119.18 78.4792L120.06 79.7992L119.62 81.1192L118.3 80.8992L117.64 79.3592L119.18 78.4792ZM157.46 80.6792C158.047 81.7059 158.193 82.5126 157.9 83.0992C157.753 83.6859 157.313 84.3459 156.58 85.0792C155.407 86.5459 154.013 86.9859 152.4 86.3992C151.52 85.9592 151.08 85.4459 151.08 84.8592C151.08 84.2726 151.153 83.5392 151.3 82.6592C151.447 81.6326 151.52 80.8259 151.52 80.2392C151.52 79.6526 152.033 79.2126 153.06 78.9192C154.233 78.7726 155.113 78.7726 155.7 78.9192C156.287 79.0659 156.873 79.6526 157.46 80.6792ZM77.16 80.6792C77.7467 81.4126 77.8933 82.0726 77.6 82.6592C77.4533 83.0992 77.0867 83.6859 76.5 84.4192C75.7667 85.4459 74.74 85.6659 73.42 85.0792C72.2467 84.7859 71.66 83.9792 71.66 82.6592C71.66 81.6326 71.66 80.8992 71.66 80.4592C71.8067 79.8726 72.32 79.4326 73.2 79.1392C74.8133 78.5526 76.1333 79.0659 77.16 80.6792ZM103.56 79.3592L105.32 80.2392L104.22 81.9992L102.02 81.7792L101.8 79.5792L103.56 79.3592ZM127.32 79.5792C128.2 80.0192 128.567 80.5326 128.42 81.1192C128.42 81.5592 128.42 82.2192 128.42 83.0992C128.273 84.1259 127.613 84.7859 126.44 85.0792C125.56 85.2259 124.827 85.4459 124.24 85.7392C123.8 85.8859 123.287 85.5926 122.7 84.8592C122.26 83.9792 122.26 83.3926 122.7 83.0992C123.14 82.6592 123.653 82.0726 124.24 81.3392C124.827 80.7526 125.267 80.2392 125.56 79.7992C126 79.3592 126.587 79.2859 127.32 79.5792ZM85.3 82.2192L84.42 84.8592L81.56 85.9592L80.02 82.8792L82.44 80.4592L85.3 82.2192ZM146.46 80.6792L147.56 82.8792L145.8 83.9792L143.38 83.5392L144.04 80.8992L146.46 80.6792ZM68.8 82.8792L69.02 85.7392L66.16 86.6192L65.28 84.1992L66.38 81.9992L68.8 82.8792ZM161.42 84.1992L162.08 85.5192L160.98 86.6192L158.78 86.3992L159.44 84.1992H161.42ZM60.66 85.2992L62.64 87.0592L61.54 88.8192L59.34 89.0392L59.12 87.0592L60.66 85.2992ZM89.48 85.7392C90.6533 86.0326 91.3867 86.3992 91.68 86.8392C91.9733 87.2792 92.1933 88.0859 92.34 89.2592C92.4867 90.4326 92.56 91.3859 92.56 92.1192C92.56 92.7059 91.9733 93.2926 90.8 93.8792C89.7733 94.3192 88.9667 94.3192 88.38 93.8792C87.94 93.4392 87.28 92.7792 86.4 91.8992C85.8133 91.3126 85.5933 90.7992 85.74 90.3592C85.8867 89.9192 86.1067 89.2592 86.4 88.3792C86.9867 87.4992 87.3533 86.8392 87.5 86.3992C87.7933 85.8126 88.4533 85.5926 89.48 85.7392ZM102.68 85.9592L103.56 88.5992L101.8 90.5792L99.6 89.0392L100.04 86.6192L102.68 85.9592ZM144.92 90.3592C144.92 91.6792 144.48 92.4859 143.6 92.7792C142.867 92.9259 141.84 93.2926 140.52 93.8792C138.76 94.4659 137.367 94.1726 136.34 92.9992C135.46 91.9726 134.873 91.1659 134.58 90.5792C134.287 89.8459 134.507 88.9659 135.24 87.9392C135.827 86.7659 136.487 86.1792 137.22 86.1792C137.953 86.0326 138.98 86.1792 140.3 86.6192C141.767 86.9126 142.867 87.2792 143.6 87.7192C144.333 88.0126 144.773 88.8926 144.92 90.3592ZM81.12 86.6192L82.66 88.3792L81.34 89.9192L79.36 89.4792L78.92 87.2792L81.12 86.6192ZM124.02 89.4792C125.047 89.6259 125.707 90.2126 126 91.2392C126.147 92.1192 126.293 92.8526 126.44 93.4392C126.733 94.0259 126.44 94.5392 125.56 94.9792C124.827 95.4192 124.24 95.4192 123.8 94.9792C123.507 94.5392 122.993 93.9526 122.26 93.2192C121.673 92.6326 121.16 92.1926 120.72 91.8992C120.427 91.6059 120.427 91.0926 120.72 90.3592C121.16 89.4792 121.6 89.1126 122.04 89.2592C122.627 89.2592 123.287 89.3326 124.02 89.4792ZM155.26 91.2392C156.58 91.3859 157.607 91.5326 158.34 91.6792C159.073 91.8259 159.587 92.4859 159.88 93.6592C160.32 95.2726 160.467 96.5926 160.32 97.6192C160.32 98.4992 159.66 99.3792 158.34 100.259C157.02 100.993 155.993 101.066 155.26 100.479C154.527 99.8926 153.573 99.1592 152.4 98.2792C151.08 97.1059 149.98 96.2259 149.1 95.6392C148.367 95.0526 148.293 94.0259 148.88 92.5592C149.467 90.9459 150.273 90.2859 151.3 90.5792C152.327 90.8726 153.647 91.0926 155.26 91.2392ZM97.4 90.7992L99.38 92.5592L98.5 94.5392L95.86 94.9792L96.08 92.5592L97.4 90.7992ZM65.94 92.7792L65.5 94.0992H63.74L63.52 92.3392L65.06 91.4592L65.94 92.7792ZM81.34 94.5392L80.68 96.2992L78.7 95.8592L78.04 93.8792L80.24 92.1192L81.34 94.5392ZM71 92.7792C71.88 92.9259 72.3933 93.2192 72.54 93.6592C72.6867 94.0992 72.8333 94.7592 72.98 95.6392C73.1267 96.5192 73.2 97.2526 73.2 97.8392C73.3467 98.2792 72.98 98.7192 72.1 99.1592C71.3667 99.5992 70.8533 99.5992 70.56 99.1592C70.2667 98.7192 69.8267 98.1326 69.24 97.3992C68.36 96.6659 68.14 95.8592 68.58 94.9792C69.02 94.2459 69.3133 93.6592 69.46 93.2192C69.7533 92.7792 70.2667 92.6326 71 92.7792ZM56.04 94.9792L58.24 96.2992L56.48 97.6192L54.28 98.0592L53.62 95.4192L56.04 94.9792ZM91.24 95.8592L92.56 97.3992L91.68 99.5992L89.7 98.7192L89.26 96.7392L91.24 95.8592ZM142.28 98.2792C143.16 99.0126 143.6 99.6726 143.6 100.259C143.6 100.846 143.38 101.653 142.94 102.679C142.353 103.706 141.84 104.439 141.4 104.879C141.107 105.319 140.373 105.466 139.2 105.319C138.173 105.173 137.587 104.806 137.44 104.219C137.44 103.486 137.293 102.606 137 101.579C136.853 100.846 136.78 100.259 136.78 99.8192C136.78 99.2326 137.22 98.7192 138.1 98.2792C138.98 97.6926 139.713 97.3992 140.3 97.3992C140.887 97.2526 141.547 97.5459 142.28 98.2792ZM131.28 102.019C131.427 103.486 131.647 104.733 131.94 105.759C132.233 106.639 131.72 107.446 130.4 108.179C128.933 108.913 127.833 108.986 127.1 108.399C126.367 107.813 125.413 106.933 124.24 105.759C123.36 104.733 122.993 103.926 123.14 103.339C123.287 102.606 123.653 101.726 124.24 100.699C124.827 99.5259 125.34 98.6459 125.78 98.0592C126.22 97.4726 127.1 97.2526 128.42 97.3992C129.74 97.6926 130.473 98.2059 130.62 98.9392C130.913 99.6726 131.133 100.699 131.28 102.019ZM63.3 99.1592V100.919L61.32 101.359L60.88 99.3792L61.98 97.8392L63.3 99.1592ZM98.28 98.2792L99.6 100.479L97.62 101.799L95.42 100.919L96.52 99.1592L98.28 98.2792ZM78.7 100.039L78.04 102.239H76.5L75.4 100.919L76.5 99.1592L78.7 100.039ZM58.24 100.919C59.2667 101.359 59.8533 101.873 60 102.459C60.1467 102.899 60.1467 103.706 60 104.879C59.8533 106.346 58.9733 107.299 57.36 107.739C55.6 108.033 54.3533 107.519 53.62 106.199C53.18 105.466 53.18 104.953 53.62 104.659C54.06 104.219 54.5733 103.633 55.16 102.899C55.7467 102.166 56.1867 101.579 56.48 101.139C56.7733 100.553 57.36 100.479 58.24 100.919ZM166.04 100.919L167.8 102.899L166.04 105.539L163.84 103.999L164.06 102.019L166.04 100.919ZM84.64 101.359L86.18 103.339L84.86 104.879L82.44 104.659V102.239L84.64 101.359ZM152.62 105.979C152.767 107.299 152.84 108.326 152.84 109.059C152.84 109.793 152.18 110.453 150.86 111.039C149.54 111.773 148.44 112.139 147.56 112.139C146.827 112.139 145.873 111.626 144.7 110.599C143.82 109.573 143.673 108.766 144.26 108.179C144.847 107.446 145.433 106.493 146.02 105.319C146.607 104.439 147.047 103.779 147.34 103.339C147.633 102.753 148.293 102.533 149.32 102.679C151.227 102.973 152.327 104.073 152.62 105.979ZM159.88 104.879L159.22 106.859H156.58L157.02 104.439L158.56 103.339L159.88 104.879ZM95.86 105.539C96.1533 106.419 96.1533 107.079 95.86 107.519C95.5667 107.959 95.0533 108.473 94.32 109.059C93 109.793 91.7533 109.719 90.58 108.839C89.8467 108.106 89.26 107.519 88.82 107.079C88.5267 106.639 88.5267 105.979 88.82 105.099C89.26 104.073 89.7733 103.633 90.36 103.779C90.9467 103.779 91.7533 103.779 92.78 103.779C93.66 103.779 94.32 103.853 94.76 103.999C95.3467 104.146 95.7133 104.659 95.86 105.539ZM75.18 110.159C76.2067 112.213 76.72 113.899 76.72 115.219C76.72 116.393 75.84 117.713 74.08 119.179C72.6133 120.646 71.3667 121.013 70.34 120.279C69.3133 119.399 67.92 118.446 66.16 117.419C64.84 116.686 64.1067 115.953 63.96 115.219C63.8133 114.486 63.8867 113.459 64.18 112.139C64.62 110.233 64.84 108.766 64.84 107.739C64.9867 106.566 65.94 105.833 67.7 105.539C69.9 105.393 71.44 105.613 72.32 106.199C73.3467 106.786 74.3 108.106 75.18 110.159ZM138.54 106.859C139.713 107.006 140.52 107.226 140.96 107.519C141.547 107.666 141.987 108.253 142.28 109.279C142.427 110.306 142.28 111.039 141.84 111.479C141.547 111.919 140.96 112.433 140.08 113.019C139.347 113.459 138.76 113.533 138.32 113.239C138.027 112.799 137.513 112.359 136.78 111.919C136.047 111.186 135.387 110.673 134.8 110.379C134.213 110.086 134.14 109.499 134.58 108.619C134.873 107.593 135.313 107.006 135.9 106.859C136.633 106.713 137.513 106.713 138.54 106.859ZM84.42 108.399C85.1533 108.839 85.52 109.353 85.52 109.939C85.6667 110.379 85.6667 111.039 85.52 111.919C85.3733 113.239 85.3733 114.339 85.52 115.219C85.6667 115.953 85.08 116.466 83.76 116.759C82.44 116.906 81.4867 116.759 80.9 116.319C80.46 115.733 79.8733 114.853 79.14 113.679C78.5533 112.506 78.1867 111.626 78.04 111.039C78.04 110.306 78.48 109.426 79.36 108.399C80.24 107.519 80.9733 107.226 81.56 107.519C82.2933 107.666 83.2467 107.959 84.42 108.399ZM165.38 107.959C166.113 108.546 166.627 109.059 166.92 109.499C167.36 109.793 167.433 110.379 167.14 111.259C166.847 112.139 166.407 112.653 165.82 112.799C165.38 112.799 164.647 112.799 163.62 112.799C162.447 112.799 161.64 112.066 161.2 110.599C161.053 109.719 161.567 108.913 162.74 108.179C163.767 107.446 164.647 107.373 165.38 107.959ZM56.7 109.279L57.36 111.699L56.48 113.679L54.28 112.799L54.72 111.039L56.7 109.279ZM127.32 111.479L127.98 113.239L126.44 114.339L125.34 113.239L125.56 111.479H127.32ZM50.1 111.919L51.86 112.579L50.76 114.119L49 114.339L48.34 112.359L50.1 111.919ZM95.86 114.779C96.74 116.099 96.6667 117.493 95.64 118.959C95.0533 119.693 94.54 119.986 94.1 119.839C93.66 119.546 93 119.326 92.12 119.179C91.24 118.886 90.5067 118.666 89.92 118.519C89.3333 118.373 89.04 117.859 89.04 116.979C89.04 115.073 89.8467 113.826 91.46 113.239C93.22 112.653 94.6867 113.166 95.86 114.779ZM170.88 113.239L171.54 115.219L170.22 116.539L168.46 115.879V113.459L170.88 113.239ZM153.06 114.999L154.38 117.199L152.62 118.739L150.42 118.079V115.439L153.06 114.999ZM147.12 118.519C148 119.839 148.587 120.939 148.88 121.819C149.32 122.553 149.1 123.579 148.22 124.899C147.047 126.513 146.02 127.613 145.14 128.199C144.26 128.639 142.867 128.493 140.96 127.759C139.493 127.319 138.833 126.586 138.98 125.559C139.273 124.386 139.42 122.993 139.42 121.379C139.42 119.766 139.347 118.519 139.2 117.639C139.053 116.613 139.713 115.806 141.18 115.219C142.793 114.779 143.893 114.926 144.48 115.659C145.213 116.246 146.093 117.199 147.12 118.519ZM103.78 115.659L102.68 118.299L100.48 118.959L98.5 116.979L100.92 114.999L103.78 115.659ZM132.6 117.639L131.5 120.279L128.64 119.839V117.199L130.84 115.219L132.6 117.639ZM121.82 115.879L122.48 117.199L121.82 118.739L120.06 118.079V116.319L121.82 115.879ZM115.66 116.099L116.1 117.639L115.22 118.959L113.68 118.079V116.099H115.66ZM158.56 116.099L160.76 117.639L159.66 120.499L156.58 120.279V117.639L158.56 116.099ZM109.5 117.199L108.62 118.519L107.3 118.299L106.64 116.539L109.5 117.199ZM79.14 116.539L80.24 118.079L79.36 119.619L77.6 119.399L77.16 117.419L79.14 116.539ZM166.04 118.299L166.92 120.719L164.5 121.599L162.96 119.839L163.62 117.639L166.04 118.299ZM106.64 120.059L108.4 122.039L107.3 124.239L105.32 123.799L104.22 121.379L106.64 120.059ZM59.78 120.719C60.9533 121.013 61.76 121.379 62.2 121.819C62.7867 122.259 63.08 123.066 63.08 124.239C63.08 125.413 62.86 126.293 62.42 126.879C61.98 127.319 61.1733 127.686 60 127.979C58.9733 128.273 58.1667 128.273 57.58 127.979C57.14 127.686 56.6267 127.099 56.04 126.219C55.16 125.046 55.2333 123.799 56.26 122.479C56.8467 121.599 57.36 121.013 57.8 120.719C58.24 120.426 58.9 120.426 59.78 120.719ZM174.4 123.139L173.08 124.899L170 125.119L170.22 121.599L173.08 120.939L174.4 123.139ZM153.72 121.599L155.04 122.919L154.38 124.899L152.84 124.019L151.74 122.259L153.72 121.599ZM118.96 122.699C120.867 123.433 122.26 124.166 123.14 124.899C124.02 125.633 124.387 127.099 124.24 129.299C123.947 131.206 123.213 132.233 122.04 132.379C120.867 132.526 119.327 132.819 117.42 133.259C115.513 133.553 114.047 133.846 113.02 134.139C111.993 134.286 110.967 133.553 109.94 131.939C109.06 130.326 108.913 129.079 109.5 128.199C110.233 127.319 111.187 126.219 112.36 124.899C113.533 123.579 114.487 122.699 115.22 122.259C116.1 121.819 117.347 121.966 118.96 122.699ZM49.44 124.899L47.24 126.439L45.48 125.999L45.26 124.019L47.46 122.479L49.44 124.899ZM102.46 124.019L101.8 125.339L100.04 125.779L99.6 124.019L101.14 122.919L102.46 124.019ZM166.04 123.579L168.68 124.899L167.36 127.759L164.5 127.979L163.4 124.899L166.04 123.579ZM133.92 125.119C134.36 125.706 134.433 126.219 134.14 126.659C133.993 127.099 133.7 127.686 133.26 128.419C132.673 129.446 131.793 129.813 130.62 129.519C129.887 129.226 129.3 129.006 128.86 128.859C128.42 128.566 128.2 127.979 128.2 127.099C128.2 125.486 128.86 124.459 130.18 124.019C131.647 123.433 132.893 123.799 133.92 125.119ZM89.92 127.539C92.7067 129.593 94.6133 131.426 95.64 133.039C96.6667 134.506 96.6667 136.853 95.64 140.079C94.4667 143.599 93.0733 145.946 91.46 147.119C89.9933 148.293 87.3533 148.879 83.54 148.879C79.58 148.879 76.6467 148.366 74.74 147.339C72.98 146.313 71.5133 143.893 70.34 140.079C69.6067 137.879 69.6067 136.266 70.34 135.239C71.0733 134.066 72.1733 133.113 73.64 132.379C75.2533 131.499 77.0133 130.399 78.92 129.079C81.2667 127.466 83.1 126.439 84.42 125.999C85.8867 125.413 87.72 125.926 89.92 127.539ZM68.58 127.319L67.92 129.079L66.38 127.979L65.72 126.219L67.7 125.999L68.58 127.319ZM153.94 126.879L154.82 128.639L153.28 129.519L151.74 128.859L152.4 127.319L153.94 126.879ZM162.74 128.199L163.62 131.279L160.76 132.379L158.56 130.839L160.1 128.859L162.74 128.199ZM150.2 129.739L149.76 131.939L148.44 133.479L146.02 131.719L147.56 129.079L150.2 129.739ZM141.84 130.399L141.4 132.599H138.98L138.76 130.179L140.3 129.299L141.84 130.399ZM106.86 132.599L105.76 135.239L103.34 135.679L101.36 133.039L104.22 131.499L106.86 132.599ZM153.72 131.719L155.48 133.039L155.04 135.239L152.84 134.579L151.96 132.819L153.72 131.719ZM56.92 136.999C56.92 138.319 56.7733 139.346 56.48 140.079C56.1867 140.666 55.38 141.253 54.06 141.839C52.74 142.279 51.7133 142.353 50.98 142.059C50.3933 141.766 49.66 141.106 48.78 140.079C47.46 138.319 47.3867 136.559 48.56 134.799C49.44 133.626 50.1733 132.819 50.76 132.379C51.3467 131.793 52.3 131.719 53.62 132.159C55.0867 132.453 55.9667 132.966 56.26 133.699C56.5533 134.433 56.7733 135.533 56.92 136.999ZM173.96 135.459C174.4 136.779 174.547 137.879 174.4 138.759C174.4 139.493 173.813 140.226 172.64 140.959C171.32 141.986 170.22 142.573 169.34 142.719C168.607 142.866 167.58 142.426 166.26 141.399C164.94 140.519 164.28 139.639 164.28 138.759C164.28 137.879 164.5 136.706 164.94 135.239C165.38 134.066 165.893 133.479 166.48 133.479C167.213 133.333 168.24 133.259 169.56 133.259C170.733 133.259 171.613 133.333 172.2 133.479C172.933 133.626 173.52 134.286 173.96 135.459ZM132.38 134.139L134.36 135.239L133.04 137.439L131.28 136.559L130.18 134.579L132.38 134.139ZM148.44 135.019C149.76 135.899 150.567 136.706 150.86 137.439C151.3 138.173 151.3 139.273 150.86 140.739C150.567 142.206 150.053 143.159 149.32 143.599C148.733 144.039 147.707 144.333 146.24 144.479C145.067 144.626 144.333 144.406 144.04 143.819C143.747 143.086 143.307 142.133 142.72 140.959C141.987 139.346 142.207 138.026 143.38 136.999C144.407 136.119 145.213 135.459 145.8 135.019C146.387 134.433 147.267 134.433 148.44 135.019ZM127.76 136.999L127.32 139.639H124.46L123.8 136.999L125.78 135.679L127.76 136.999ZM64.84 135.899C66.16 136.339 66.82 137.146 66.82 138.319C66.82 139.639 66.2333 140.446 65.06 140.739C63.5933 141.326 62.4933 141.106 61.76 140.079C60.88 139.053 60.88 137.953 61.76 136.779C62.4933 135.899 63.52 135.606 64.84 135.899ZM43.06 137.439L44.38 139.199L43.5 140.959L41.52 140.519L41.08 138.539L43.06 137.439ZM159.22 137.439L160.1 139.859L159.44 142.059L156.58 141.399L157.02 138.979L159.22 137.439ZM108.18 139.639L107.08 141.179L105.1 140.739L104.88 138.759L106.86 138.099L108.18 139.639ZM134.8 140.519L135.9 143.159L135.24 146.019L132.16 145.139V142.279L134.8 140.519ZM112.8 141.619C113.973 142.353 114.413 143.453 114.12 144.919C113.827 145.946 112.947 146.533 111.48 146.679C110.6 146.679 109.94 146.679 109.5 146.679C109.06 146.679 108.693 146.239 108.4 145.359C107.813 144.039 108.107 142.866 109.28 141.839C110.307 140.959 111.48 140.886 112.8 141.619ZM179.68 141.179L180.56 142.939L178.8 143.599L177.48 143.159L177.7 141.179H179.68ZM105.32 142.939C106.053 144.406 105.907 145.653 104.88 146.679C103.707 147.853 102.387 148.073 100.92 147.339C100.187 147.046 99.82 146.679 99.82 146.239C99.82 145.653 99.8933 144.919 100.04 144.039C100.187 142.866 100.847 142.133 102.02 141.839C102.9 141.693 103.56 141.693 104 141.839C104.44 141.839 104.88 142.206 105.32 142.939ZM126.44 144.479C127.173 145.359 127.613 146.093 127.76 146.679C128.053 147.266 127.907 148.073 127.32 149.099C126.733 150.273 126.073 151.006 125.34 151.299C124.753 151.593 123.873 151.666 122.7 151.519C121.233 151.226 120.207 150.859 119.62 150.419C119.18 149.833 118.887 148.806 118.74 147.339C118.593 146.019 118.667 145.066 118.96 144.479C119.4 143.746 120.28 143.086 121.6 142.499C122.773 141.913 123.653 141.839 124.24 142.279C124.827 142.719 125.56 143.453 126.44 144.479ZM41.74 143.819L41.08 146.019L39.1 146.679L37.78 144.699L39.54 143.159L41.74 143.819ZM61.98 144.919L62.86 146.899L60.66 148.219L59.56 146.239L60 144.259L61.98 144.919ZM56.04 144.699L56.7 146.899L54.72 147.779L52.52 146.459L54.06 144.259L56.04 144.699ZM157.24 145.579L156.58 146.899L155.26 146.459L154.82 145.139L156.36 144.479L157.24 145.579ZM168.46 149.539C168.607 150.713 168.607 151.666 168.46 152.399C168.313 152.986 167.653 153.573 166.48 154.159C165.453 154.599 164.647 154.599 164.06 154.159C163.62 153.573 163.033 152.913 162.3 152.179C161.273 151.006 160.32 150.199 159.44 149.759C158.707 149.319 158.633 148.439 159.22 147.119C160.1 145.799 160.907 145.139 161.64 145.139C162.52 145.139 163.767 145.286 165.38 145.579C166.553 145.873 167.287 146.313 167.58 146.899C168.02 147.339 168.313 148.219 168.46 149.539ZM184.3 147.339C184.593 148.219 184.52 148.806 184.08 149.099C183.64 149.246 183.127 149.613 182.54 150.199C181.513 150.933 180.633 151.079 179.9 150.639C178.873 150.053 178.433 149.173 178.58 147.999C178.873 146.826 179.68 146.166 181 146.019C181.88 146.019 182.54 146.093 182.98 146.239C183.567 146.239 184.007 146.606 184.3 147.339ZM48.78 147.999L48.56 149.979L46.58 150.199L45.7 148.879L46.8 146.899L48.78 147.999ZM69.02 149.539L67.26 151.959H64.4V149.099L66.6 147.119L69.02 149.539ZM149.32 149.319C150.64 151.079 151.3 152.546 151.3 153.719C151.447 154.746 150.933 156.213 149.76 158.119C148.587 159.586 147.487 160.173 146.46 159.879C145.433 159.586 143.967 159.146 142.06 158.559C140.447 157.973 139.127 157.533 138.1 157.239C137.22 156.799 136.78 155.699 136.78 153.939C136.78 152.179 137.293 151.226 138.32 151.079C139.347 150.786 140.667 150.346 142.28 149.759C143.893 149.173 145.213 148.586 146.24 147.999C147.267 147.413 148.293 147.853 149.32 149.319ZM175.06 148.219V149.979L173.96 151.079L172.42 149.979L172.86 147.999L175.06 148.219ZM96.3 148.879L96.96 151.079L94.54 151.739L92.34 150.199L94.32 148.659L96.3 148.879ZM74.74 149.539L75.4 151.519L73.42 151.959L71.44 151.079L72.76 149.099L74.74 149.539ZM133.04 149.099L135.24 151.079L133.26 152.839L130.4 153.279V149.979L133.04 149.099ZM157.02 149.759L157.24 152.399L154.82 153.059L153.94 151.079L154.6 149.319L157.02 149.759ZM113.46 151.959L112.36 154.159L109.72 153.279L110.38 151.299L112.14 149.539L113.46 151.959ZM57.58 151.079L56.7 153.939L53.84 154.159L52.96 151.739L54.94 149.759L57.58 151.079ZM42.84 150.639V152.839L40.86 153.499L40.2 151.739L40.86 149.979L42.84 150.639ZM104 153.059L103.12 154.599L100.92 154.379L100.7 151.959L102.9 151.079L104 153.059ZM79.8 151.519L81.12 153.279L79.36 154.819L78.04 153.279V151.519H79.8ZM63.3 154.379L62.86 155.919L60.66 155.699L60.44 153.279L62.64 152.619L63.3 154.379ZM178.36 153.499L177.48 155.699L175.72 155.479L175.28 154.159L176.38 152.839L178.36 153.499ZM36.24 153.499L37.78 156.359L35.58 158.119L33.38 157.239L32.94 154.379L36.24 153.499ZM77.16 158.559C78.3333 160.173 78.6267 161.493 78.04 162.519C77.4533 163.546 76.5733 164.866 75.4 166.479C74.3733 167.799 73.42 168.533 72.54 168.679C71.66 168.826 70.4867 168.679 69.02 168.239C67.4067 167.653 66.38 167.066 65.94 166.479C65.5 165.746 65.28 164.573 65.28 162.959C65.28 160.906 65.3533 159.293 65.5 158.119C65.6467 156.946 66.6733 156.139 68.58 155.699C70.78 154.966 72.3933 154.819 73.42 155.259C74.5933 155.553 75.84 156.653 77.16 158.559ZM185.4 156.359C186.427 156.653 186.94 157.239 186.94 158.119C186.94 159.146 186.353 159.806 185.18 160.099C184.593 160.246 184.08 160.393 183.64 160.539C183.2 160.539 182.76 160.246 182.32 159.659C181.587 158.486 181.66 157.386 182.54 156.359C182.98 155.773 183.347 155.553 183.64 155.699C184.08 155.846 184.667 156.066 185.4 156.359ZM49.22 157.679C49.66 158.853 49.8067 159.806 49.66 160.539C49.5133 161.273 48.8533 162.006 47.68 162.739C46.8 163.473 46.0667 163.619 45.48 163.179C44.8933 162.739 44.16 162.153 43.28 161.419C42.4 160.833 41.6667 160.319 41.08 159.879C40.64 159.439 40.5667 158.706 40.86 157.679C41.1533 156.653 41.5933 156.139 42.18 156.139C42.9133 156.139 43.8667 156.139 45.04 156.139C46.2133 156.139 47.0933 156.139 47.68 156.139C48.4133 156.139 48.9267 156.653 49.22 157.679ZM56.48 159.219C56.92 160.393 56.7 161.346 55.82 162.079C54.6467 162.813 53.62 162.886 52.74 162.299C51.42 161.419 50.98 160.393 51.42 159.219C51.7133 157.899 52.6667 157.239 54.28 157.239C55.3067 157.239 56.04 157.899 56.48 159.219ZM163.18 164.499C163.62 166.259 163.547 167.579 162.96 168.459C162.52 169.193 161.493 169.999 159.88 170.879C158.413 171.906 157.167 172.566 156.14 172.859C155.113 173.006 153.94 172.419 152.62 171.099C151.007 169.779 149.98 168.606 149.54 167.579C149.247 166.553 149.54 165.086 150.42 163.179C151.153 161.273 151.96 160.026 152.84 159.439C153.867 158.706 155.48 158.413 157.68 158.559C159.733 158.706 161.053 159.293 161.64 160.319C162.227 161.199 162.74 162.593 163.18 164.499ZM170.88 159.219L171.1 161.419L169.34 162.079L167.36 160.979L168.9 159.439L170.88 159.219ZM81.56 159.659L83.1 160.979L81.56 162.299H79.58L80.02 160.319L81.56 159.659ZM180.78 162.299L182.32 163.839L181.22 165.379L179.46 165.159L179.24 163.399L180.78 162.299ZM187.6 162.959L188.48 165.159L186.28 166.699L184.08 164.719L185.84 163.179L187.6 162.959ZM36.9 165.159L36.46 166.919L34.48 166.259V164.279L36.9 165.159ZM50.32 164.279L51.64 166.919L49.44 168.239L47.46 167.359L47.9 165.159L50.32 164.279ZM173.74 166.479C174.913 166.919 175.5 167.653 175.5 168.679C175.5 169.706 174.913 170.439 173.74 170.879C173.007 171.026 172.347 170.659 171.76 169.779C171.173 169.046 170.66 168.533 170.22 168.239C169.927 167.946 170 167.433 170.44 166.699C170.88 166.113 171.32 165.893 171.76 166.039C172.347 166.186 173.007 166.333 173.74 166.479ZM62.2 167.579V170.219H59.12L58.24 167.139L60.66 166.259L62.2 167.579ZM32.94 166.479L34.04 168.459L32.5 169.779L30.08 169.339L30.3 166.699L32.94 166.479ZM141.84 166.479L142.5 168.239L141.18 170.439L139.64 168.679V166.479H141.84ZM39.32 168.679C40.0533 169.266 40.42 169.779 40.42 170.219C40.5667 170.659 40.5667 171.319 40.42 172.199C39.98 173.519 39.1 174.253 37.78 174.399C36.1667 174.546 35.14 173.959 34.7 172.639C34.4067 171.759 34.26 171.099 34.26 170.659C34.26 170.073 34.6267 169.486 35.36 168.899C36.5333 167.873 37.8533 167.799 39.32 168.679ZM56.26 168.899L56.48 170.659L54.28 171.979L53.18 169.779L54.28 168.019L56.26 168.899ZM181.44 169.999L181.66 171.759L179.68 172.419L178.8 170.439L180.34 169.339L181.44 169.999ZM46.14 170.219L47.46 171.759L46.8 173.959L44.16 173.739L44.6 171.319L46.14 170.219ZM187.16 170.439L188.7 171.319L187.82 173.299L185.84 173.079L185.4 171.099L187.16 170.439Z" fill="white"/>
</svg>
